# Blender v2.90.1 OBJ File: 'Stair1.blend'
# www.blender.org
mtllib stair_b2.mtl
o Block.001_cube.002
v 1.000000 0.667000 1.000000
v 1.000000 -0.000000 1.000000
v 1.000000 1.000000 0.000000
v 1.000000 0.000000 -0.000000
v 0.000000 1.000000 0.000000
v 0.000000 0.000000 -0.000000
v 0.000000 0.667000 1.000000
v 0.000000 -0.000000 1.000000
vt 0.999985 0.999903
vt 0.000097 0.999903
vt 0.000097 0.000097
vt 0.999985 0.000097
vt 0.000000 0.000000
vt 1.000000 0.000000
vt 1.000000 1.000000
vt 0.000000 1.000000
vt 0.000000 0.000000
vt 1.000000 1.000000
vt 0.000000 1.000000
vt 0.000000 0.000000
vt 1.000000 0.000000
vt 1.000000 1.000000
vt 0.000000 1.000000
vt 1.000000 0.000000
vt 1.000000 1.000000
vt 0.000000 1.000000
vt 0.000000 0.000000
vt 1.000000 0.000000
vt 1.000000 1.000000
vt 0.000000 1.000000
vn 0.0000 0.9488 0.3159
vn 1.0000 0.0000 0.0000
vn 0.0000 -1.0000 -0.0000
vn 0.0000 0.0000 -1.0000
vn -1.0000 0.0000 0.0000
vn 0.0000 -0.0000 1.0000
usemtl texturetop
s 1
f 7/1/1 1/2/1 3/3/1 5/4/1
usemtl side
f 2/5/2 4/6/2 3/7/2 1/8/2
f 6/9/3 4/6/3 2/10/3 8/11/3
f 4/12/4 6/13/4 5/14/4 3/15/4
f 6/9/5 8/16/5 7/17/5 5/18/5
f 8/19/6 2/20/6 1/21/6 7/22/6
