# Blender v2.90.1 OBJ File: 'Stair1.blend'
# www.blender.org
mtllib stair_b2.mtl
o Block.002_cube.003
v 1.000000 -0.000000 1.000000
v 1.000000 -0.000000 1.000000
v 1.000000 0.334000 0.000000
v 1.000000 0.000000 -0.000000
v 0.000000 0.334000 0.000000
v 0.000000 0.000000 -0.000000
v 0.000000 -0.000000 1.000000
v 0.000000 -0.000000 1.000000
vt 0.000000 1.000000
vt 0.000000 0.000000
vt 1.000000 1.000000
vt 0.000000 0.000000
vt 1.000000 0.000000
vt 1.000000 1.000000
vt 0.000000 0.000000
vt 1.000000 0.000000
vt 1.000000 1.000000
vt 0.000000 1.000000
vt 0.000097 0.999854
vt 0.999950 0.999854
vt 0.999950 0.000049
vt 0.000097 0.000049
vt 1.000000 0.000000
vt 0.000000 1.000000
vt 0.000000 0.000000
vt 1.000000 0.000000
vt 1.000000 1.000000
vt 0.000000 1.000000
vt 1.000000 1.000000
vt 0.000000 1.000000
vn 1.0000 0.0000 0.0000
vn -1.0000 0.0000 0.0000
vn 0.0000 -1.0000 0.0000
vn 0.0000 0.9485 0.3168
vn 0.0000 0.0000 -1.0000
usemtl texturetop
s 1
f 1/1/1 2/2/1 3/3/1
f 6/4/2 8/5/2 7/6/2
f 8/7/3 2/8/3 1/9/3 7/10/3
f 7/11/4 1/12/4 3/13/4 5/14/4
usemtl side
f 2/2/1 4/15/1 3/3/1
f 5/16/2 6/4/2 7/6/2
f 4/17/5 6/18/5 5/19/5 3/20/5
f 6/4/3 4/15/3 2/21/3 8/22/3
